<svg width="32" height="32" viewBox="0 0 32 32" fill="none" xmlns="http://www.w3.org/2000/svg">
<g clip-path="url(#clip0_158_258)">
<circle cx="16" cy="16" r="16" fill="#FAFAFA"/>
<path d="M24.5269 15.6861C24.4962 15.7383 24.4626 15.7862 24.4217 15.8486C24.0812 14.8331 23.3212 14.8186 23.1093 15.335C22.6373 16.4883 23.8064 18.2349 24.4655 17.9738C25.1436 17.7054 25.94 16.7001 25.997 15.9342C26.0584 15.1218 25.1669 14.5851 24.5269 15.6861Z" fill="#FC675B"/>
<path d="M16.0689 14.4174C15.8475 12.3629 16.1616 10.3834 16.9853 8.4668C17.3694 7.5726 17.8344 6.72108 18.4657 5.95446C18.9444 5.37227 19.4693 4.82954 20.0835 4.36465C20.2643 4.22672 20.452 4.09877 20.6814 4.03339C20.9386 3.95991 21.168 4.00787 21.3595 4.17561C21.4553 4.25948 21.5371 4.3594 21.6118 4.46003C22.0548 5.05495 22.3527 5.71224 22.5712 6.40276C22.7915 7.09708 22.923 7.80553 22.9729 8.5274C23.0695 9.8954 22.9075 11.2357 22.4929 12.5517C22.1402 13.6695 21.6422 14.7216 20.91 15.6716C20.3476 16.4008 19.7109 17.0693 18.9283 17.6055C18.7698 17.7132 18.603 17.8111 18.4394 17.9113C18.324 17.9814 18.1957 18.0141 18.0599 17.9943C17.8876 17.9686 17.7147 17.9391 17.5442 17.9039C17.428 17.8794 17.3228 17.8258 17.2507 17.7357C17.1382 17.5934 17.0186 17.4519 16.9331 17.295C16.5823 16.6523 16.3409 15.9747 16.2106 15.2648C16.1597 14.9831 16.1157 14.7007 16.0689 14.4174ZM20.6929 7.91168C20.6782 7.78377 20.6706 7.65516 20.6476 7.52939C20.6171 7.36439 20.5795 7.19873 20.4838 7.05353C20.4076 6.93972 20.3431 6.92742 20.2468 7.02632C20.1582 7.11775 20.0749 7.21803 20.0186 7.32763C19.8538 7.64266 19.6875 7.95785 19.5513 8.28476C18.9828 9.64797 18.6181 11.0617 18.37 12.5025C18.2338 13.2921 18.1746 14.0902 18.1356 14.8888C18.1103 15.4061 18.1211 15.9251 18.1173 16.4429C18.1166 16.487 18.1219 16.5331 18.1353 16.5745C18.1543 16.6273 18.202 16.6426 18.2463 16.6035C18.2841 16.5704 18.3182 16.5297 18.3421 16.4873C18.6128 16.0071 18.9 15.5319 19.1495 15.0418C19.9471 13.4732 20.4882 11.8327 20.6727 10.1007C20.7497 9.37033 20.7608 8.64109 20.6929 7.91168Z" fill="url(#paint0_linear_158_258)"/>
<path d="M13.9819 15.015C14.041 16.0374 13.9589 17.0356 13.6847 18.0108C13.6287 18.2087 13.5622 18.3988 13.458 18.573C13.3917 18.6844 13.3065 18.7718 13.1927 18.818C13.0601 18.8721 12.9261 18.9235 12.7921 18.9735C12.6542 19.0237 12.5244 18.9974 12.3917 18.9382C11.6897 18.6274 11.0836 18.1553 10.5118 17.626C9.51195 16.7022 8.75388 15.5762 8.17391 14.3052C7.73682 13.3472 7.40873 12.3488 7.21467 11.3005C7.08152 10.5833 7.00406 9.85911 7.00014 9.12676C6.99562 8.12911 7.09755 7.14647 7.40493 6.19988C7.49538 5.92 7.61562 5.64958 7.73602 5.3833C7.82051 5.19634 7.96262 5.07127 8.15516 5.01952C8.27472 4.98687 8.39484 4.99566 8.50524 5.04228C8.67275 5.11212 8.84041 5.18609 8.994 5.2857C9.80126 5.81063 10.5026 6.47256 11.1307 7.23099C11.6913 7.90871 12.1287 8.67729 12.5341 9.46973C13.0906 10.561 13.4958 11.7128 13.732 12.933C13.8651 13.6211 13.9617 14.3181 13.9819 15.015ZM12.477 17.5888C12.4836 17.5387 12.498 17.4896 12.4946 17.4427C12.4876 17.345 12.4718 17.2491 12.4598 17.153C12.3243 16.0199 12.0803 14.9106 11.7999 13.8116C11.4605 12.4807 10.9611 11.2151 10.4018 9.97755C10.1611 9.44721 9.88703 8.93665 9.56961 8.45463C9.47656 8.31311 9.37232 8.1777 9.25608 8.05813C9.12376 7.92142 9.04343 7.94785 8.99868 8.14095C8.96357 8.2935 8.94414 8.45485 8.93986 8.61269C8.92894 9.04585 8.98269 9.47285 9.04415 9.90081C9.14259 10.5825 9.27751 11.2539 9.4704 11.9112C9.90914 13.4109 10.5544 14.8014 11.3687 16.1C11.6612 16.5667 11.9833 17.0125 12.2931 17.4659C12.3313 17.5206 12.3686 17.5849 12.477 17.5888Z" fill="url(#paint1_linear_158_258)"/>
<path d="M11.9999 21.5396C12.0042 21.6719 11.8841 21.759 11.7372 21.7515C11.6906 21.7493 11.644 21.7364 11.6003 21.7235C10.9266 21.5289 10.2219 21.4546 9.50873 21.4116C8.81532 21.3696 8.12471 21.3761 7.43273 21.432C6.51621 21.5062 5.62792 21.6719 4.75655 21.8935C4.63369 21.9247 4.51224 21.9559 4.38796 21.9827C4.33006 21.9946 4.26792 22.0032 4.20861 21.9989C4.11399 21.9914 4.04479 21.9462 4.01513 21.8773C3.98265 21.8031 4.00101 21.73 4.08433 21.6805C4.13658 21.6493 4.20014 21.6278 4.26368 21.6106C5.26213 21.3513 6.27472 21.1384 7.32825 21.0513C8.06684 20.99 8.80685 20.9857 9.54685 21.0276C10.212 21.0642 10.8701 21.1352 11.5084 21.2911C11.6186 21.318 11.726 21.3492 11.8319 21.3836C11.935 21.4159 11.9915 21.4772 11.9999 21.5396Z" fill="#593223"/>
<path d="M22.5384 21C24.4301 21.0887 26.0901 21.761 27.5215 23.1763C27.6293 23.283 27.735 23.3923 27.8417 23.5003C27.8697 23.5285 27.8977 23.5555 27.9225 23.5877C28.0174 23.7072 28.0249 23.837 27.9462 23.9348C27.8762 24.0222 27.763 24.0234 27.666 23.9283C27.5453 23.8113 27.4289 23.6879 27.3103 23.5684C26.3326 22.5786 25.2073 21.959 23.9548 21.653C23.3005 21.4924 22.6419 21.4268 21.9768 21.5103C21.7612 21.5373 21.5467 21.5875 21.3322 21.6286C21.2966 21.635 21.2611 21.6492 21.2255 21.653C21.1102 21.662 21.0218 21.59 21.0035 21.4731C20.9851 21.3548 21.0401 21.2443 21.1522 21.2096C21.2977 21.1645 21.4443 21.1221 21.5931 21.1029C21.9218 21.0579 22.2528 21.0296 22.5384 21Z" fill="#593223"/>
<path d="M26.9998 20.8225C26.9956 20.9321 26.9077 21.0115 26.7922 20.9986C26.7328 20.9922 26.6735 20.9707 26.6152 20.9514C26.0971 20.7774 25.5769 20.6174 25.0386 20.5207C24.3891 20.4047 23.7353 20.3542 23.0752 20.3972C22.6111 20.4273 22.1513 20.4735 21.701 20.5948C21.578 20.6281 21.4583 20.6711 21.3365 20.7097C21.3026 20.7205 21.2697 20.7377 21.2358 20.7452C21.1405 20.7667 21.0578 20.7269 21.0186 20.6442C20.9805 20.5626 21.0006 20.4659 21.0822 20.4122C21.1405 20.3736 21.2093 20.3467 21.2761 20.3231C21.6925 20.1749 22.1237 20.0986 22.5603 20.0525C23.1293 19.9923 23.7004 19.9827 24.2704 20.0299C25.0111 20.0911 25.7294 20.2544 26.4351 20.4874C26.576 20.5336 26.717 20.5776 26.8558 20.6292C26.9585 20.6668 27.003 20.7334 26.9998 20.8225Z" fill="#593223"/>
<path d="M21.5174 22C22.096 22.0415 22.6089 22.144 23.1006 22.3619C24.1539 22.8316 25.096 23.5192 25.877 24.5181C25.9088 24.5584 25.9427 24.5973 25.9671 24.644C26.019 24.7413 26.0074 24.8632 25.947 24.9372C25.8865 25.0099 25.7848 25.0241 25.7075 24.9553C25.646 24.9009 25.5941 24.8295 25.5401 24.7646C24.7389 23.7812 23.7873 23.104 22.7053 22.7019C22.2497 22.5319 21.7802 22.4541 21.3023 22.4761C21.262 22.4774 21.2207 22.4826 21.1805 22.4761C21.0755 22.4606 21.0056 22.3736 21.0003 22.2595C20.995 22.1466 21.0575 22.0428 21.1624 22.0272C21.2991 22.0052 21.438 22.0052 21.5174 22Z" fill="#593223"/>
<path d="M10.1916 22.002C10.6968 21.989 11.197 22.0383 11.691 22.151C11.749 22.1639 11.8081 22.1755 11.8623 22.1989C11.9646 22.2442 12.0164 22.3504 11.9954 22.4566C11.9757 22.5537 11.8956 22.6276 11.7921 22.6327C11.7453 22.6353 11.6972 22.6276 11.6516 22.6172C10.9395 22.4514 10.2187 22.4074 9.49665 22.4916C7.79265 22.6923 6.24508 23.3088 4.90824 24.4602C4.74806 24.5987 4.59158 24.7425 4.43264 24.8824C4.39691 24.9147 4.35994 24.9484 4.31928 24.9717C4.22934 25.0222 4.12091 25.0028 4.05807 24.9316C3.9903 24.8552 3.98045 24.7516 4.03589 24.6557C4.05684 24.6194 4.08641 24.5858 4.11598 24.5573C4.93165 23.7828 5.8274 23.1404 6.85253 22.7104C7.74335 22.3362 8.66744 22.103 9.62355 22.0124C9.66544 22.0085 9.7061 22.0033 9.748 22.0033C9.89585 22.0007 10.0437 22.002 10.1916 22.002Z" fill="#593223"/>
<path d="M11.3093 23.0078C11.4314 23.0078 11.5534 23.0052 11.6768 23.0091C11.7315 23.0104 11.7874 23.0181 11.8396 23.0337C11.935 23.0623 11.996 23.1466 11.9998 23.2388C12.0036 23.3374 11.94 23.4347 11.837 23.4619C11.7798 23.4775 11.7162 23.4762 11.6552 23.4749C10.8044 23.4529 9.99174 23.628 9.20959 23.9667C8.37533 24.3275 7.60465 24.7907 6.92427 25.4045C6.76911 25.5447 6.62415 25.6991 6.47406 25.8444C6.42954 25.8872 6.38629 25.9326 6.33545 25.9651C6.24516 26.0222 6.13197 26.0066 6.06455 25.9378C5.99588 25.869 5.97809 25.7535 6.03021 25.6614C6.05691 25.6134 6.09764 25.5732 6.13577 25.5329C6.82379 24.7972 7.625 24.225 8.51778 23.7773C9.23629 23.4165 9.98283 23.1518 10.7815 23.0532C10.957 23.0311 11.135 23.0168 11.3105 23C11.308 23.0026 11.3093 23.0052 11.3093 23.0078Z" fill="#593223"/>
</g>
<defs>
<linearGradient id="paint0_linear_158_258" x1="18.6931" y1="4.21568" x2="20.0396" y2="17.8143" gradientUnits="userSpaceOnUse">
<stop stop-color="#FF847B"/>
<stop offset="1" stop-color="#DE5953"/>
</linearGradient>
<linearGradient id="paint1_linear_158_258" x1="10.1619" y1="4.89973" x2="10.9199" y2="19.0926" gradientUnits="userSpaceOnUse">
<stop stop-color="#FF847B"/>
<stop offset="1" stop-color="#DE5953"/>
</linearGradient>
<clipPath id="clip0_158_258">
<rect width="32" height="32" fill="white"/>
</clipPath>
</defs>
</svg>
