<svg width="726" height="287" viewBox="0 0 726 287" fill="none" xmlns="http://www.w3.org/2000/svg">
<g clip-path="url(#clip0_26_3)">
<path d="M244.02 147.18C254.721 214.606 216.68 257.927 162.644 266.503C108.602 275.079 59.0181 245.665 48.3172 178.24C45.1434 158.242 45.7086 136.914 49.4805 116.57C58.4298 68.3157 85.438 25.6268 123.458 19.5928C162.587 13.3826 202.657 47.7132 225.846 92.7301C234.681 109.879 241.068 128.579 244.02 147.18Z" fill="#F2F2F2"/>
<path d="M123.455 19.5957C86.8012 25.413 69.104 105.821 79.8048 173.245C90.4215 240.14 125.433 271.823 161.781 266.636C108.08 274.765 58.9638 245.301 48.3209 178.242C37.6201 110.817 69.4191 28.1717 123.455 19.5957Z" fill="#E6E6E6"/>
<path d="M225.846 92.7301C179.063 101.836 218.006 172.742 178.206 179.059C137.973 185.444 147.447 121.124 124.779 120.034C102.106 118.951 101.167 142.576 80.0966 145.92C79.0477 146.086 78.0311 146.179 77.0347 146.2C61.0226 146.603 51.4148 129.702 48.7382 124.257C49.1064 121.692 49.3497 119.129 49.481 116.57C58.222 69.4487 84.1812 27.6328 120.803 20.0764C120.918 20.0517 121.033 20.0276 121.149 20.0091C121.446 19.9497 121.737 19.8907 122.028 19.8385C122.502 19.7509 122.971 19.6701 123.434 19.5967L123.458 19.5928C162.588 13.3826 202.657 47.7133 225.846 92.7301Z" fill="url(#paint0_linear_26_3)"/>
<path d="M104.835 197.054C112.748 195.798 117.819 186.318 116.163 175.88C114.506 165.441 106.749 157.997 98.8357 159.253C90.9228 160.509 85.8512 169.989 87.5078 180.427C89.1644 190.866 96.922 198.309 104.835 197.054Z" fill="#FC675B"/>
<path d="M123.434 19.5967C91.606 24.6732 74.0805 85.9956 77.0347 146.2C61.0226 146.603 51.4148 129.702 48.7382 124.257C49.1064 121.692 49.3497 119.129 49.481 116.57C58.222 69.4487 84.1812 27.6328 120.803 20.0764C120.918 20.0517 121.033 20.0276 121.149 20.0091C121.446 19.9497 121.737 19.8907 122.028 19.8385C122.502 19.751 122.97 19.6702 123.434 19.5967Z" fill="#E8564F"/>
</g>
<path d="M320.24 173.904C320.24 176.799 319.701 179.219 318.623 181.164C317.545 183.098 315.98 184.557 313.93 185.541C311.879 186.514 309.406 187 306.512 187H299.375V161.301H307.285C309.945 161.301 312.242 161.781 314.176 162.742C316.109 163.691 317.604 165.104 318.658 166.979C319.713 168.842 320.24 171.15 320.24 173.904ZM315.846 174.027C315.846 171.918 315.512 170.184 314.844 168.824C314.188 167.465 313.215 166.457 311.926 165.801C310.648 165.133 309.072 164.799 307.197 164.799H303.594V183.467H306.582C309.688 183.467 312.008 182.676 313.543 181.094C315.078 179.512 315.846 177.156 315.846 174.027ZM340.332 187H325.777V161.301H340.332V164.852H329.996V171.83H339.682V175.363H329.996V183.432H340.332V187ZM378.055 174.115C378.055 176.096 377.803 177.9 377.299 179.529C376.807 181.146 376.062 182.541 375.066 183.713C374.07 184.873 372.822 185.77 371.322 186.402C369.822 187.035 368.064 187.352 366.049 187.352C363.998 187.352 362.217 187.035 360.705 186.402C359.205 185.77 357.957 184.867 356.961 183.695C355.977 182.523 355.238 181.123 354.746 179.494C354.254 177.865 354.008 176.061 354.008 174.08C354.008 171.432 354.441 169.123 355.309 167.154C356.188 165.174 357.518 163.639 359.299 162.549C361.092 161.447 363.354 160.896 366.084 160.896C368.756 160.896 370.977 161.441 372.746 162.531C374.516 163.621 375.84 165.156 376.719 167.137C377.609 169.105 378.055 171.432 378.055 174.115ZM358.438 174.115C358.438 176.096 358.707 177.812 359.246 179.266C359.785 180.707 360.611 181.82 361.725 182.605C362.85 183.379 364.291 183.766 366.049 183.766C367.818 183.766 369.26 183.379 370.373 182.605C371.486 181.82 372.307 180.707 372.834 179.266C373.361 177.812 373.625 176.096 373.625 174.115C373.625 171.104 373.021 168.748 371.814 167.049C370.619 165.338 368.709 164.482 366.084 164.482C364.326 164.482 362.879 164.869 361.742 165.643C360.617 166.416 359.785 167.523 359.246 168.965C358.707 170.395 358.438 172.111 358.438 174.115ZM402.629 161.301L393.646 187H389.182L380.199 161.301H384.523L389.938 177.402C390.102 177.871 390.277 178.439 390.465 179.107C390.664 179.775 390.846 180.449 391.01 181.129C391.186 181.809 391.32 182.412 391.414 182.939C391.508 182.412 391.637 181.809 391.801 181.129C391.977 180.449 392.158 179.775 392.346 179.107C392.533 178.439 392.709 177.865 392.873 177.385L398.305 161.301H402.629ZM428.82 174.115C428.82 176.096 428.568 177.9 428.064 179.529C427.572 181.146 426.828 182.541 425.832 183.713C424.836 184.873 423.588 185.77 422.088 186.402C420.588 187.035 418.83 187.352 416.814 187.352C414.764 187.352 412.982 187.035 411.471 186.402C409.971 185.77 408.723 184.867 407.727 183.695C406.742 182.523 406.004 181.123 405.512 179.494C405.02 177.865 404.773 176.061 404.773 174.08C404.773 171.432 405.207 169.123 406.074 167.154C406.953 165.174 408.283 163.639 410.064 162.549C411.857 161.447 414.119 160.896 416.85 160.896C419.521 160.896 421.742 161.441 423.512 162.531C425.281 163.621 426.605 165.156 427.484 167.137C428.375 169.105 428.82 171.432 428.82 174.115ZM409.203 174.115C409.203 176.096 409.473 177.812 410.012 179.266C410.551 180.707 411.377 181.82 412.49 182.605C413.615 183.379 415.057 183.766 416.814 183.766C418.584 183.766 420.025 183.379 421.139 182.605C422.252 181.82 423.072 180.707 423.6 179.266C424.127 177.812 424.391 176.096 424.391 174.115C424.391 171.104 423.787 168.748 422.58 167.049C421.385 165.338 419.475 164.482 416.85 164.482C415.092 164.482 413.645 164.869 412.508 165.643C411.383 166.416 410.551 167.523 410.012 168.965C409.473 170.395 409.203 172.111 409.203 174.115ZM449.176 180.004C449.176 181.527 448.801 182.84 448.051 183.941C447.312 185.043 446.246 185.887 444.852 186.473C443.469 187.059 441.816 187.352 439.895 187.352C438.957 187.352 438.061 187.299 437.205 187.193C436.35 187.088 435.541 186.936 434.779 186.736C434.029 186.525 433.344 186.273 432.723 185.98V182.008C433.766 182.465 434.932 182.881 436.221 183.256C437.51 183.619 438.822 183.801 440.158 183.801C441.248 183.801 442.15 183.66 442.865 183.379C443.592 183.086 444.131 182.676 444.482 182.148C444.834 181.609 445.01 180.982 445.01 180.268C445.01 179.506 444.805 178.861 444.395 178.334C443.984 177.807 443.363 177.326 442.531 176.893C441.711 176.447 440.68 175.973 439.438 175.469C438.594 175.129 437.785 174.742 437.012 174.309C436.25 173.875 435.57 173.365 434.973 172.779C434.375 172.193 433.9 171.502 433.549 170.705C433.209 169.896 433.039 168.947 433.039 167.857C433.039 166.404 433.385 165.162 434.076 164.131C434.779 163.1 435.764 162.309 437.029 161.758C438.307 161.207 439.795 160.932 441.494 160.932C442.842 160.932 444.107 161.072 445.291 161.354C446.486 161.635 447.658 162.033 448.807 162.549L447.471 165.941C446.416 165.508 445.391 165.162 444.395 164.904C443.41 164.646 442.402 164.518 441.371 164.518C440.48 164.518 439.725 164.652 439.104 164.922C438.482 165.191 438.008 165.572 437.68 166.064C437.363 166.545 437.205 167.119 437.205 167.787C437.205 168.537 437.387 169.17 437.75 169.686C438.125 170.189 438.699 170.652 439.473 171.074C440.258 171.496 441.266 171.965 442.496 172.48C443.914 173.066 445.115 173.682 446.1 174.326C447.096 174.971 447.857 175.744 448.385 176.646C448.912 177.537 449.176 178.656 449.176 180.004ZM484.35 173.904C484.35 176.799 483.811 179.219 482.732 181.164C481.654 183.098 480.09 184.557 478.039 185.541C475.988 186.514 473.516 187 470.621 187H463.484V161.301H471.395C474.055 161.301 476.352 161.781 478.285 162.742C480.219 163.691 481.713 165.104 482.768 166.979C483.822 168.842 484.35 171.15 484.35 173.904ZM479.955 174.027C479.955 171.918 479.621 170.184 478.953 168.824C478.297 167.465 477.324 166.457 476.035 165.801C474.758 165.133 473.182 164.799 471.307 164.799H467.703V183.467H470.691C473.797 183.467 476.117 182.676 477.652 181.094C479.188 179.512 479.955 177.156 479.955 174.027ZM504.441 187H489.887V161.301H504.441V164.852H494.105V171.83H503.791V175.363H494.105V183.432H504.441V187ZM530.299 164.518C529.068 164.518 527.967 164.74 526.994 165.186C526.033 165.631 525.219 166.275 524.551 167.119C523.883 167.951 523.373 168.965 523.021 170.16C522.67 171.344 522.494 172.68 522.494 174.168C522.494 176.16 522.775 177.877 523.338 179.318C523.9 180.748 524.756 181.85 525.904 182.623C527.053 183.385 528.506 183.766 530.264 183.766C531.354 183.766 532.414 183.66 533.445 183.449C534.477 183.238 535.543 182.951 536.645 182.588V186.174C535.602 186.584 534.547 186.883 533.48 187.07C532.414 187.258 531.184 187.352 529.789 187.352C527.164 187.352 524.984 186.807 523.25 185.717C521.527 184.627 520.238 183.092 519.383 181.111C518.539 179.131 518.117 176.811 518.117 174.15C518.117 172.205 518.387 170.424 518.926 168.807C519.465 167.189 520.25 165.795 521.281 164.623C522.312 163.439 523.584 162.531 525.096 161.898C526.619 161.254 528.359 160.932 530.316 160.932C531.605 160.932 532.871 161.078 534.113 161.371C535.367 161.652 536.527 162.057 537.594 162.584L536.117 166.064C535.227 165.643 534.295 165.279 533.322 164.975C532.35 164.67 531.342 164.518 530.299 164.518ZM564.98 174.115C564.98 176.096 564.729 177.9 564.225 179.529C563.732 181.146 562.988 182.541 561.992 183.713C560.996 184.873 559.748 185.77 558.248 186.402C556.748 187.035 554.99 187.352 552.975 187.352C550.924 187.352 549.143 187.035 547.631 186.402C546.131 185.77 544.883 184.867 543.887 183.695C542.902 182.523 542.164 181.123 541.672 179.494C541.18 177.865 540.934 176.061 540.934 174.08C540.934 171.432 541.367 169.123 542.234 167.154C543.113 165.174 544.443 163.639 546.225 162.549C548.018 161.447 550.279 160.896 553.01 160.896C555.682 160.896 557.902 161.441 559.672 162.531C561.441 163.621 562.766 165.156 563.645 167.137C564.535 169.105 564.98 171.432 564.98 174.115ZM545.363 174.115C545.363 176.096 545.633 177.812 546.172 179.266C546.711 180.707 547.537 181.82 548.65 182.605C549.775 183.379 551.217 183.766 552.975 183.766C554.744 183.766 556.186 183.379 557.299 182.605C558.412 181.82 559.232 180.707 559.76 179.266C560.287 177.812 560.551 176.096 560.551 174.115C560.551 171.104 559.947 168.748 558.74 167.049C557.545 165.338 555.635 164.482 553.01 164.482C551.252 164.482 549.805 164.869 548.668 165.643C547.543 166.416 546.711 167.523 546.172 168.965C545.633 170.395 545.363 172.111 545.363 174.115ZM570.5 187V161.301H574.719V183.414H585.635V187H570.5ZM610.35 187H606.148V175.398H594.301V187H590.082V161.301H594.301V171.812H606.148V161.301H610.35V187ZM631.707 187H617.152V161.301H631.707V164.852H621.371V171.83H631.057V175.363H621.371V183.432H631.707V187ZM644.486 161.301C646.701 161.301 648.529 161.57 649.971 162.109C651.424 162.648 652.502 163.469 653.205 164.57C653.92 165.672 654.277 167.072 654.277 168.771C654.277 170.037 654.043 171.115 653.574 172.006C653.105 172.896 652.49 173.635 651.729 174.221C650.967 174.807 650.152 175.275 649.285 175.627L656.58 187H651.816L645.611 176.699H641.48V187H637.262V161.301H644.486ZM644.205 164.816H641.48V173.219H644.398C646.355 173.219 647.773 172.855 648.652 172.129C649.543 171.402 649.988 170.33 649.988 168.912C649.988 167.424 649.514 166.369 648.564 165.748C647.627 165.127 646.174 164.816 644.205 164.816ZM663.4 179.16H660.289L659.445 161.301H664.244L663.4 179.16ZM659.234 184.82C659.234 183.859 659.48 183.186 659.973 182.799C660.477 182.4 661.092 182.201 661.818 182.201C662.533 182.201 663.143 182.4 663.646 182.799C664.15 183.186 664.402 183.859 664.402 184.82C664.402 185.758 664.15 186.438 663.646 186.859C663.143 187.27 662.533 187.475 661.818 187.475C661.092 187.475 660.477 187.27 659.973 186.859C659.48 186.438 659.234 185.758 659.234 184.82Z" fill="url(#paint1_linear_26_3)"/>
<path d="M260.722 87.6139C261.916 87.7846 262.727 88.1473 263.154 88.702C263.623 89.2566 263.858 89.982 263.858 90.8779C263.858 93.8219 262.279 95.1873 259.122 94.9739L256.882 94.782C254.364 94.5686 251.847 94.3979 249.33 94.27C246.855 94.1419 244.252 94.0779 241.522 94.0779H238.642C238.13 100.393 237.596 106.153 237.042 111.358L248.05 111.166C249.628 111.166 250.674 111.443 251.186 111.998C251.74 112.553 252.018 113.299 252.018 114.238C252.018 115.689 251.591 116.841 250.738 117.694C249.884 118.505 248.668 118.91 247.09 118.91H236.146L235.762 121.662C234.866 128.702 232.946 133.715 230.002 136.702C227.1 139.689 223.09 141.182 217.97 141.182C215.068 141.182 212.402 140.563 209.97 139.326C207.538 138.046 205.746 136.51 204.594 134.718C204.124 133.993 203.89 133.118 203.89 132.094C203.89 131.07 204.124 130.174 204.594 129.406C205.106 128.638 205.724 128.254 206.45 128.254C206.962 128.254 207.452 128.425 207.922 128.766C208.434 129.107 209.074 129.769 209.842 130.75C211.89 133.438 214.428 134.782 217.458 134.782C219.89 134.782 221.916 133.801 223.538 131.838C225.202 129.833 226.268 126.697 226.738 122.43L227.122 118.91H224.05C223.068 118.91 222.215 118.633 221.49 118.078C220.807 117.523 220.466 116.734 220.466 115.71C220.466 114.387 220.807 113.385 221.49 112.702C222.172 111.977 223.175 111.614 224.498 111.614C225.692 111.614 226.866 111.593 228.018 111.55C228.53 106.857 229.084 101.161 229.682 94.4619C225.074 94.8886 221.831 95.6353 219.954 96.702C218.076 97.7686 217.138 99.3473 217.138 101.438C217.138 102.889 217.564 104.275 218.418 105.598C218.674 105.982 218.802 106.366 218.802 106.75C218.802 107.518 218.375 108.201 217.522 108.798C216.668 109.353 215.708 109.63 214.642 109.63C213.49 109.63 212.508 109.289 211.698 108.606C211.186 108.179 210.695 107.305 210.226 105.982C209.756 104.659 209.522 103.187 209.522 101.566C209.522 96.2753 212.231 92.4353 217.65 90.046C223.111 87.6566 231.068 86.4619 241.522 86.4619C248.775 86.4619 255.175 86.8459 260.722 87.6139ZM258.21 140.99C255.565 140.99 253.453 140.03 251.874 138.11C250.296 136.19 249.506 133.673 249.506 130.558C249.506 127.145 250.296 123.923 251.874 120.894C253.453 117.822 255.544 115.369 258.146 113.534C260.792 111.657 263.586 110.718 266.53 110.718C267.469 110.718 268.088 110.91 268.386 111.294C268.728 111.635 269.005 112.275 269.218 113.214C270.114 113.043 271.053 112.958 272.034 112.958C274.125 112.958 275.17 113.705 275.17 115.198C275.17 116.094 274.85 118.227 274.21 121.598C273.229 126.505 272.738 129.918 272.738 131.838C272.738 132.478 272.888 132.99 273.186 133.374C273.528 133.758 273.954 133.95 274.466 133.95C275.277 133.95 276.258 133.438 277.41 132.414C278.562 131.347 280.12 129.641 282.082 127.294C282.594 126.697 283.17 126.398 283.81 126.398C284.365 126.398 284.792 126.654 285.09 127.166C285.432 127.678 285.602 128.382 285.602 129.278C285.602 130.985 285.197 132.307 284.386 133.246C282.637 135.422 280.781 137.257 278.818 138.75C276.856 140.243 274.957 140.99 273.122 140.99C271.714 140.99 270.413 140.521 269.218 139.582C268.066 138.601 267.192 137.278 266.594 135.614C264.376 139.198 261.581 140.99 258.21 140.99ZM260.514 134.526C261.453 134.526 262.349 133.971 263.202 132.862C264.056 131.753 264.674 130.281 265.058 128.446L267.426 116.67C265.634 116.713 263.97 117.395 262.434 118.718C260.941 119.998 259.746 121.705 258.85 123.838C257.954 125.971 257.506 128.233 257.506 130.622C257.506 131.945 257.762 132.926 258.274 133.566C258.829 134.206 259.576 134.526 260.514 134.526ZM307.345 126.398C307.899 126.398 308.326 126.654 308.625 127.166C308.966 127.678 309.137 128.382 309.137 129.278C309.137 130.899 308.731 132.222 307.921 133.246C306.47 135.038 304.785 136.553 302.865 137.79C300.987 138.985 299.025 139.859 296.977 140.414C298.641 141.822 299.473 143.742 299.473 146.174C299.473 148.179 298.982 149.971 298.001 151.55C297.062 153.171 295.675 154.43 293.841 155.326C292.049 156.222 289.937 156.67 287.505 156.67C285.883 156.67 284.561 156.563 283.537 156.35C281.873 156.051 281.041 155.113 281.041 153.534C281.041 151.614 281.894 150.654 283.601 150.654C283.942 150.654 284.219 150.675 284.433 150.718C285.585 150.889 286.715 150.974 287.825 150.974C289.531 150.974 290.854 150.611 291.793 149.886C292.774 149.203 293.265 148.137 293.265 146.686C293.265 145.619 292.795 144.766 291.857 144.126C290.961 143.529 289.723 143.23 288.145 143.23C287.035 143.23 286.182 143.081 285.585 142.782C284.987 142.483 284.689 141.971 284.689 141.246C284.689 140.99 284.71 140.798 284.753 140.67C284.881 140.03 285.073 139.561 285.329 139.262C283.409 138.238 281.937 136.745 280.913 134.782C279.889 132.819 279.377 130.579 279.377 128.062C279.377 124.606 280.059 121.577 281.425 118.974C282.79 116.371 284.561 114.366 286.737 112.958C288.913 111.55 291.195 110.846 293.585 110.846C295.931 110.846 297.745 111.55 299.025 112.958C300.347 114.323 301.009 116.094 301.009 118.27C301.009 120.062 300.603 121.577 299.793 122.814C299.025 124.051 298.001 124.67 296.721 124.67C295.91 124.67 295.249 124.478 294.737 124.094C294.267 123.71 294.033 123.177 294.033 122.494C294.033 122.195 294.075 121.854 294.161 121.47C294.246 121.086 294.31 120.809 294.353 120.638C294.566 119.998 294.673 119.401 294.673 118.846C294.673 118.291 294.523 117.865 294.225 117.566C293.969 117.267 293.585 117.118 293.073 117.118C292.091 117.118 291.174 117.566 290.321 118.462C289.467 119.315 288.785 120.489 288.273 121.982C287.761 123.475 287.505 125.118 287.505 126.91C287.505 131.859 289.659 134.334 293.969 134.334C295.718 134.334 297.595 133.758 299.601 132.606C301.649 131.411 303.654 129.641 305.617 127.294C306.129 126.697 306.705 126.398 307.345 126.398ZM310.698 140.99C308.266 140.99 306.282 140.03 304.746 138.11C303.253 136.19 302.506 133.673 302.506 130.558C302.506 127.145 303.296 123.923 304.874 120.894C306.453 117.822 308.544 115.369 311.146 113.534C313.792 111.657 316.586 110.718 319.53 110.718C320.469 110.718 321.088 110.91 321.386 111.294C321.728 111.635 322.005 112.275 322.218 113.214C323.029 113.043 323.925 112.958 324.906 112.958C325.93 112.958 326.72 113.214 327.274 113.726C327.829 114.238 328.106 114.963 328.106 115.902C328.106 116.883 327.893 118.59 327.466 121.022C326.997 123.625 326.634 126.121 326.378 128.51C326.122 130.857 325.994 133.502 325.994 136.446C325.994 138.067 325.653 139.241 324.97 139.966C324.33 140.649 323.264 140.99 321.77 140.99C320.32 140.99 319.232 140.649 318.506 139.966C317.824 139.241 317.482 138.089 317.482 136.51L317.546 135.486C316.224 139.155 313.941 140.99 310.698 140.99ZM313.194 134.526C314.389 134.526 315.477 133.694 316.458 132.03C317.44 130.366 318.314 127.401 319.082 123.134L320.298 116.67C318.549 116.713 316.928 117.395 315.434 118.718C313.941 119.998 312.746 121.705 311.85 123.838C310.954 125.971 310.506 128.233 310.506 130.622C310.506 131.902 310.741 132.883 311.21 133.566C311.722 134.206 312.384 134.526 313.194 134.526ZM361.492 142.398C359.274 142.398 357.567 141.886 356.372 140.862C355.22 139.838 354.644 138.686 354.644 137.406C354.644 136.297 355.05 135.337 355.86 134.526C356.671 133.715 357.866 133.31 359.444 133.31C359.999 133.31 360.639 133.374 361.364 133.502C362.132 133.587 362.708 133.651 363.092 133.694C363.05 132.585 362.794 131.539 362.324 130.558C361.898 129.577 361.343 128.638 360.66 127.742C359.978 126.803 359.338 125.993 358.74 125.31C357.418 127.827 356.095 129.918 354.772 131.582C353.492 133.246 352.084 134.825 350.548 136.318C349.78 137.086 348.97 137.47 348.116 137.47C347.434 137.47 346.879 137.235 346.452 136.766C346.026 136.254 345.812 135.635 345.812 134.91C345.812 134.057 346.111 133.267 346.708 132.542L347.54 131.518C349.887 128.617 351.658 126.227 352.852 124.35C353.578 123.113 354.431 121.47 355.412 119.422C356.394 117.331 357.354 115.177 358.292 112.958C359.103 111.081 360.788 110.142 363.348 110.142C364.543 110.142 365.375 110.249 365.844 110.462C366.314 110.675 366.548 111.017 366.548 111.486C366.548 111.742 366.463 112.147 366.292 112.702C366.122 113.257 365.887 113.811 365.588 114.366C364.82 115.902 364.436 117.203 364.436 118.27C364.436 118.91 364.65 119.614 365.076 120.382C365.546 121.15 366.25 122.11 367.188 123.262C368.554 125.054 369.578 126.59 370.26 127.87C370.986 129.107 371.348 130.473 371.348 131.966C371.348 132.393 371.306 132.99 371.22 133.758C373.311 132.947 375.764 130.793 378.58 127.294C379.092 126.697 379.668 126.398 380.308 126.398C380.863 126.398 381.29 126.654 381.588 127.166C381.93 127.678 382.1 128.382 382.1 129.278C382.1 130.899 381.695 132.222 380.884 133.246C378.751 135.891 376.703 137.705 374.74 138.686C372.82 139.625 370.431 140.137 367.572 140.222C365.866 141.673 363.839 142.398 361.492 142.398ZM383.429 140.99C381.509 140.99 379.93 140.115 378.693 138.366C377.498 136.574 376.901 134.355 376.901 131.71C376.901 128.51 377.114 125.587 377.541 122.942C377.967 120.254 378.671 117.417 379.653 114.43C380.079 113.15 380.677 112.233 381.445 111.678C382.213 111.123 383.429 110.846 385.093 110.846C386.031 110.846 386.671 110.995 387.013 111.294C387.397 111.593 387.589 112.041 387.589 112.638C387.589 112.979 387.354 114.131 386.885 116.094C386.458 117.673 386.117 119.102 385.861 120.382C385.007 124.862 384.581 127.849 384.581 129.342C384.581 130.238 384.687 130.878 384.901 131.262C385.114 131.603 385.455 131.774 385.925 131.774C386.565 131.774 387.354 131.134 388.293 129.854C389.274 128.574 390.298 126.633 391.365 124.03C392.474 121.427 393.541 118.227 394.565 114.43C394.906 113.15 395.418 112.233 396.101 111.678C396.826 111.123 397.893 110.846 399.301 110.846C400.282 110.846 400.965 110.974 401.349 111.23C401.733 111.443 401.925 111.87 401.925 112.51C401.925 113.577 401.391 116.499 400.325 121.278C399.13 126.739 398.533 130.11 398.533 131.39C398.533 132.201 398.703 132.841 399.045 133.31C399.386 133.737 399.834 133.95 400.389 133.95C401.242 133.95 402.245 133.438 403.397 132.414C404.591 131.347 406.17 129.641 408.133 127.294C408.645 126.697 409.221 126.398 409.861 126.398C410.415 126.398 410.842 126.654 411.141 127.166C411.482 127.678 411.653 128.382 411.653 129.278C411.653 130.985 411.247 132.307 410.437 133.246C408.602 135.507 406.618 137.363 404.485 138.814C402.394 140.265 400.005 140.99 397.317 140.99C395.269 140.99 393.754 140.201 392.773 138.622C391.834 137.043 391.365 134.825 391.365 131.966C390.639 134.867 389.551 137.107 388.101 138.686C386.65 140.222 385.093 140.99 383.429 140.99ZM413.823 140.99C411.391 140.99 409.407 140.03 407.871 138.11C406.378 136.19 405.631 133.673 405.631 130.558C405.631 127.145 406.421 123.923 407.999 120.894C409.578 117.822 411.669 115.369 414.271 113.534C416.917 111.657 419.711 110.718 422.655 110.718C423.594 110.718 424.213 110.91 424.511 111.294C424.853 111.635 425.13 112.275 425.343 113.214C426.154 113.043 427.05 112.958 428.031 112.958C429.055 112.958 429.845 113.214 430.399 113.726C430.954 114.238 431.231 114.963 431.231 115.902C431.231 116.883 431.018 118.59 430.591 121.022C430.122 123.625 429.759 126.121 429.503 128.51C429.247 130.857 429.119 133.502 429.119 136.446C429.119 138.067 428.778 139.241 428.095 139.966C427.455 140.649 426.389 140.99 424.895 140.99C423.445 140.99 422.357 140.649 421.631 139.966C420.949 139.241 420.607 138.089 420.607 136.51L420.671 135.486C419.349 139.155 417.066 140.99 413.823 140.99ZM416.319 134.526C417.514 134.526 418.602 133.694 419.583 132.03C420.565 130.366 421.439 127.401 422.207 123.134L423.423 116.67C421.674 116.713 420.053 117.395 418.559 118.718C417.066 119.998 415.871 121.705 414.975 123.838C414.079 125.971 413.631 128.233 413.631 130.622C413.631 131.902 413.866 132.883 414.335 133.566C414.847 134.206 415.509 134.526 416.319 134.526ZM481.257 126.398C481.812 126.398 482.239 126.654 482.537 127.166C482.879 127.678 483.049 128.382 483.049 129.278C483.049 130.985 482.644 132.307 481.833 133.246C480.255 135.166 478.015 136.937 475.113 138.558C472.255 140.179 469.183 140.99 465.897 140.99C461.417 140.99 457.94 139.774 455.465 137.342C452.991 134.91 451.753 131.582 451.753 127.358C451.753 124.414 452.372 121.683 453.609 119.166C454.847 116.606 456.553 114.579 458.729 113.086C460.948 111.593 463.444 110.846 466.217 110.846C468.692 110.846 470.676 111.593 472.169 113.086C473.663 114.537 474.409 116.521 474.409 119.038C474.409 121.982 473.343 124.521 471.209 126.654C469.119 128.745 465.556 130.409 460.521 131.646C461.588 133.609 463.615 134.59 466.601 134.59C468.521 134.59 470.697 133.929 473.129 132.606C475.604 131.241 477.737 129.47 479.529 127.294C480.041 126.697 480.617 126.398 481.257 126.398ZM465.129 117.118C463.551 117.118 462.207 118.035 461.097 119.87C460.031 121.705 459.497 123.923 459.497 126.526V126.654C462.015 126.057 463.999 125.161 465.449 123.966C466.9 122.771 467.625 121.385 467.625 119.806C467.625 118.995 467.391 118.355 466.921 117.886C466.495 117.374 465.897 117.118 465.129 117.118ZM482.382 140.99C480.761 140.99 479.609 140.137 478.926 138.43C478.286 136.723 477.966 133.993 477.966 130.238C477.966 124.691 478.756 119.422 480.334 114.43C480.718 113.193 481.337 112.297 482.19 111.742C483.086 111.145 484.324 110.846 485.902 110.846C486.756 110.846 487.353 110.953 487.694 111.166C488.036 111.379 488.206 111.785 488.206 112.382C488.206 113.065 487.886 114.601 487.246 116.99C486.82 118.697 486.478 120.19 486.222 121.47C485.966 122.75 485.753 124.329 485.582 126.206C486.99 122.537 488.569 119.55 490.318 117.246C492.068 114.942 493.774 113.299 495.438 112.318C497.145 111.337 498.702 110.846 500.11 110.846C502.884 110.846 504.27 112.233 504.27 115.006C504.27 116.67 503.801 119.678 502.862 124.03C502.052 127.742 501.646 130.195 501.646 131.39C501.646 133.097 502.265 133.95 503.502 133.95C504.356 133.95 505.358 133.438 506.51 132.414C507.705 131.347 509.284 129.641 511.246 127.294C511.758 126.697 512.334 126.398 512.974 126.398C513.529 126.398 513.956 126.654 514.254 127.166C514.596 127.678 514.766 128.382 514.766 129.278C514.766 130.985 514.361 132.307 513.55 133.246C511.716 135.507 509.732 137.363 507.598 138.814C505.508 140.265 503.118 140.99 500.43 140.99C498.254 140.99 496.612 140.371 495.502 139.134C494.393 137.854 493.838 136.019 493.838 133.63C493.838 132.435 494.137 130.302 494.734 127.23C495.289 124.542 495.566 122.686 495.566 121.662C495.566 120.979 495.332 120.638 494.862 120.638C494.308 120.638 493.518 121.363 492.494 122.814C491.513 124.222 490.489 126.099 489.422 128.446C488.398 130.793 487.566 133.267 486.926 135.87C486.457 137.875 485.902 139.241 485.262 139.966C484.665 140.649 483.705 140.99 482.382 140.99ZM521.812 140.99C517.631 140.99 514.367 139.817 512.02 137.47C509.716 135.081 508.564 131.945 508.564 128.062C508.564 124.606 509.247 121.577 510.612 118.974C511.978 116.371 513.748 114.366 515.924 112.958C518.1 111.55 520.383 110.846 522.772 110.846C525.119 110.846 526.932 111.55 528.212 112.958C529.535 114.323 530.196 116.094 530.196 118.27C530.196 120.062 529.791 121.577 528.98 122.814C528.212 124.051 527.188 124.67 525.908 124.67C525.098 124.67 524.436 124.478 523.924 124.094C523.455 123.71 523.22 123.177 523.22 122.494C523.22 122.195 523.263 121.854 523.348 121.47C523.434 121.086 523.498 120.809 523.54 120.638C523.754 119.998 523.86 119.401 523.86 118.846C523.86 118.291 523.711 117.865 523.412 117.566C523.156 117.267 522.772 117.118 522.26 117.118C521.279 117.118 520.362 117.566 519.508 118.462C518.655 119.315 517.972 120.489 517.46 121.982C516.948 123.475 516.692 125.118 516.692 126.91C516.692 131.859 518.847 134.334 523.156 134.334C524.906 134.334 526.783 133.758 528.788 132.606C530.836 131.411 532.842 129.641 534.804 127.294C535.316 126.697 535.892 126.398 536.532 126.398C537.087 126.398 537.514 126.654 537.812 127.166C538.154 127.678 538.324 128.382 538.324 129.278C538.324 130.899 537.919 132.222 537.108 133.246C535.103 135.721 532.692 137.641 529.876 139.006C527.103 140.329 524.415 140.99 521.812 140.99ZM565.791 121.022C566.345 121.022 566.772 121.299 567.071 121.854C567.369 122.409 567.519 123.113 567.519 123.966C567.519 126.014 566.9 127.23 565.663 127.614C563.103 128.51 560.287 129.022 557.215 129.15C556.404 132.734 554.804 135.614 552.415 137.79C550.025 139.923 547.316 140.99 544.287 140.99C541.727 140.99 539.529 140.371 537.695 139.134C535.903 137.897 534.537 136.254 533.599 134.206C532.66 132.158 532.191 129.939 532.191 127.55C532.191 124.307 532.809 121.427 534.047 118.91C535.284 116.35 536.991 114.366 539.167 112.958C541.343 111.507 543.753 110.782 546.399 110.782C549.641 110.782 552.244 111.913 554.207 114.174C556.212 116.393 557.385 119.145 557.727 122.43C559.732 122.302 562.121 121.875 564.895 121.15C565.236 121.065 565.535 121.022 565.791 121.022ZM544.799 134.206C546.164 134.206 547.337 133.651 548.319 132.542C549.343 131.433 550.025 129.833 550.367 127.742C549.044 126.846 548.02 125.673 547.295 124.222C546.612 122.771 546.271 121.235 546.271 119.614C546.271 118.931 546.335 118.249 546.463 117.566H546.143C544.436 117.566 543.007 118.398 541.855 120.062C540.745 121.683 540.191 123.987 540.191 126.974C540.191 129.321 540.639 131.113 541.535 132.35C542.473 133.587 543.561 134.206 544.799 134.206ZM566.57 140.99C564.948 140.99 563.796 140.137 563.114 138.43C562.474 136.723 562.154 133.993 562.154 130.238C562.154 124.691 562.943 119.422 564.522 114.43C564.906 113.193 565.524 112.297 566.378 111.742C567.274 111.145 568.511 110.846 570.09 110.846C570.943 110.846 571.54 110.953 571.882 111.166C572.223 111.379 572.394 111.785 572.394 112.382C572.394 113.065 572.074 114.601 571.434 116.99C571.007 118.697 570.666 120.19 570.41 121.47C570.154 122.707 569.94 124.265 569.77 126.142C570.922 122.814 572.287 119.998 573.866 117.694C575.487 115.39 577.13 113.683 578.794 112.574C580.5 111.422 582.1 110.846 583.594 110.846C585.087 110.846 586.132 111.187 586.73 111.87C587.37 112.553 587.69 113.598 587.69 115.006C587.69 116.371 587.284 118.846 586.474 122.43C586.132 123.966 585.898 125.118 585.77 125.886C587.903 120.638 590.271 116.819 592.874 114.43C595.476 112.041 597.908 110.846 600.17 110.846C602.943 110.846 604.33 112.233 604.33 115.006C604.33 116.67 603.86 119.678 602.922 124.03C602.111 127.742 601.706 130.195 601.706 131.39C601.706 133.097 602.324 133.95 603.562 133.95C604.415 133.95 605.418 133.438 606.57 132.414C607.764 131.347 609.343 129.641 611.306 127.294C611.818 126.697 612.394 126.398 613.034 126.398C613.588 126.398 614.015 126.654 614.314 127.166C614.655 127.678 614.826 128.382 614.826 129.278C614.826 130.985 614.42 132.307 613.61 133.246C611.775 135.507 609.791 137.363 607.658 138.814C605.567 140.265 603.178 140.99 600.49 140.99C598.314 140.99 596.671 140.371 595.562 139.134C594.452 137.854 593.898 136.019 593.898 133.63C593.898 132.435 594.196 130.302 594.794 127.23C595.348 124.542 595.626 122.686 595.626 121.662C595.626 120.979 595.391 120.638 594.922 120.638C594.367 120.638 593.578 121.363 592.554 122.814C591.53 124.222 590.506 126.099 589.482 128.446C588.458 130.793 587.626 133.267 586.986 135.87C586.516 137.918 585.962 139.283 585.322 139.966C584.724 140.649 583.743 140.99 582.378 140.99C580.97 140.99 579.903 140.329 579.178 139.006C578.495 137.641 578.154 135.998 578.154 134.078C578.154 132.457 578.367 130.11 578.794 127.038C579.135 124.307 579.306 122.515 579.306 121.662C579.306 120.979 579.071 120.638 578.602 120.638C577.962 120.638 577.151 121.406 576.17 122.942C575.188 124.478 574.228 126.441 573.29 128.83C572.394 131.219 571.668 133.566 571.114 135.87C570.644 137.875 570.09 139.241 569.45 139.966C568.852 140.649 567.892 140.99 566.57 140.99ZM638.195 126.398C638.749 126.398 639.176 126.654 639.475 127.166C639.816 127.678 639.987 128.382 639.987 129.278C639.987 130.985 639.581 132.307 638.771 133.246C637.192 135.166 634.952 136.937 632.051 138.558C629.192 140.179 626.12 140.99 622.835 140.99C618.355 140.99 614.877 139.774 612.403 137.342C609.928 134.91 608.691 131.582 608.691 127.358C608.691 124.414 609.309 121.683 610.547 119.166C611.784 116.606 613.491 114.579 615.667 113.086C617.885 111.593 620.381 110.846 623.155 110.846C625.629 110.846 627.613 111.593 629.107 113.086C630.6 114.537 631.347 116.521 631.347 119.038C631.347 121.982 630.28 124.521 628.147 126.654C626.056 128.745 622.493 130.409 617.459 131.646C618.525 133.609 620.552 134.59 623.539 134.59C625.459 134.59 627.635 133.929 630.067 132.606C632.541 131.241 634.675 129.47 636.467 127.294C636.979 126.697 637.555 126.398 638.195 126.398ZM622.067 117.118C620.488 117.118 619.144 118.035 618.035 119.87C616.968 121.705 616.435 123.923 616.435 126.526V126.654C618.952 126.057 620.936 125.161 622.387 123.966C623.837 122.771 624.563 121.385 624.563 119.806C624.563 118.995 624.328 118.355 623.859 117.886C623.432 117.374 622.835 117.118 622.067 117.118ZM639.32 140.99C637.698 140.99 636.546 140.137 635.864 138.43C635.224 136.723 634.904 133.993 634.904 130.238C634.904 124.691 635.693 119.422 637.272 114.43C637.656 113.193 638.274 112.297 639.128 111.742C640.024 111.145 641.261 110.846 642.84 110.846C643.693 110.846 644.29 110.953 644.632 111.166C644.973 111.379 645.144 111.785 645.144 112.382C645.144 113.065 644.824 114.601 644.184 116.99C643.757 118.697 643.416 120.19 643.16 121.47C642.904 122.75 642.69 124.329 642.52 126.206C643.928 122.537 645.506 119.55 647.256 117.246C649.005 114.942 650.712 113.299 652.376 112.318C654.082 111.337 655.64 110.846 657.048 110.846C659.821 110.846 661.208 112.233 661.208 115.006C661.208 116.67 660.738 119.678 659.8 124.03C658.989 127.742 658.584 130.195 658.584 131.39C658.584 133.097 659.202 133.95 660.44 133.95C661.293 133.95 662.296 133.438 663.448 132.414C664.642 131.347 666.221 129.641 668.184 127.294C668.696 126.697 669.272 126.398 669.912 126.398C670.466 126.398 670.893 126.654 671.192 127.166C671.533 127.678 671.704 128.382 671.704 129.278C671.704 130.985 671.298 132.307 670.488 133.246C668.653 135.507 666.669 137.363 664.536 138.814C662.445 140.265 660.056 140.99 657.368 140.99C655.192 140.99 653.549 140.371 652.44 139.134C651.33 137.854 650.776 136.019 650.776 133.63C650.776 132.435 651.074 130.302 651.672 127.23C652.226 124.542 652.504 122.686 652.504 121.662C652.504 120.979 652.269 120.638 651.8 120.638C651.245 120.638 650.456 121.363 649.432 122.814C648.45 124.222 647.426 126.099 646.36 128.446C645.336 130.793 644.504 133.267 643.864 135.87C643.394 137.875 642.84 139.241 642.2 139.966C641.602 140.649 640.642 140.99 639.32 140.99ZM702.878 126.398C703.432 126.398 703.859 126.654 704.158 127.166C704.499 127.678 704.67 128.382 704.67 129.278C704.67 130.985 704.264 132.307 703.454 133.246C701.704 135.379 699.784 137.214 697.694 138.75C695.603 140.243 693.534 140.99 691.486 140.99C688.243 140.99 685.768 139.091 684.062 135.294C682.27 137.555 680.691 139.07 679.326 139.838C678.003 140.606 676.446 140.99 674.654 140.99C672.051 140.99 669.896 140.03 668.19 138.11C666.526 136.147 665.694 133.609 665.694 130.494C665.694 127.081 666.419 123.923 667.87 121.022C669.32 118.078 671.304 115.689 673.822 113.854C676.382 111.977 679.24 110.867 682.398 110.526C683.208 102.249 684.744 95.1873 687.006 89.3419C689.31 83.4539 692.318 80.5099 696.03 80.5099C697.864 80.5099 699.379 81.3419 700.574 83.006C701.811 84.6699 702.43 87.1873 702.43 90.5579C702.43 95.3366 701.256 100.926 698.91 107.326C696.563 113.726 693.427 120.297 689.502 127.038C689.672 129.513 690.035 131.283 690.59 132.35C691.187 133.417 691.934 133.95 692.83 133.95C693.982 133.95 695.155 133.438 696.35 132.414C697.544 131.39 699.144 129.683 701.15 127.294C701.662 126.697 702.238 126.398 702.878 126.398ZM695.326 86.7819C694.515 86.7819 693.704 88.2326 692.894 91.1339C692.083 93.9926 691.379 97.7473 690.782 102.398C690.227 107.049 689.822 111.913 689.566 116.99C694.344 106.579 696.734 98.2166 696.734 91.902C696.734 90.2806 696.584 89.022 696.286 88.1259C696.03 87.2299 695.71 86.7819 695.326 86.7819ZM676.894 134.526C677.704 134.526 678.515 134.206 679.326 133.566C680.136 132.883 681.16 131.646 682.398 129.854C681.971 127.55 681.758 124.969 681.758 122.11C681.758 121.086 681.8 119.422 681.886 117.118C679.539 117.843 677.576 119.422 675.998 121.854C674.462 124.243 673.694 126.91 673.694 129.854C673.694 132.969 674.76 134.526 676.894 134.526ZM706.198 140.99C703.766 140.99 701.782 140.03 700.246 138.11C698.753 136.19 698.006 133.673 698.006 130.558C698.006 127.145 698.796 123.923 700.374 120.894C701.953 117.822 704.044 115.369 706.646 113.534C709.292 111.657 712.086 110.718 715.03 110.718C715.969 110.718 716.588 110.91 716.886 111.294C717.228 111.635 717.505 112.275 717.718 113.214C718.529 113.043 719.425 112.958 720.406 112.958C721.43 112.958 722.22 113.214 722.774 113.726C723.329 114.238 723.606 114.963 723.606 115.902C723.606 116.883 723.393 118.59 722.966 121.022C722.497 123.625 722.134 126.121 721.878 128.51C721.622 130.857 721.494 133.502 721.494 136.446C721.494 138.067 721.153 139.241 720.47 139.966C719.83 140.649 718.764 140.99 717.27 140.99C715.82 140.99 714.732 140.649 714.006 139.966C713.324 139.241 712.982 138.089 712.982 136.51L713.046 135.486C711.724 139.155 709.441 140.99 706.198 140.99ZM708.694 134.526C709.889 134.526 710.977 133.694 711.958 132.03C712.94 130.366 713.814 127.401 714.582 123.134L715.798 116.67C714.049 116.713 712.428 117.395 710.934 118.718C709.441 119.998 708.246 121.705 707.35 123.838C706.454 125.971 706.006 128.233 706.006 130.622C706.006 131.902 706.241 132.883 706.71 133.566C707.222 134.206 707.884 134.526 708.694 134.526Z" fill="url(#paint2_linear_26_3)"/>
<defs>
<linearGradient id="paint0_linear_26_3" x1="123.19" y1="19.6354" x2="149.221" y2="183.659" gradientUnits="userSpaceOnUse">
<stop stop-color="#FF847B"/>
<stop offset="1" stop-color="#DE5953"/>
</linearGradient>
<linearGradient id="paint1_linear_26_3" x1="481.5" y1="149" x2="481.5" y2="198" gradientUnits="userSpaceOnUse">
<stop stop-color="#593223"/>
<stop offset="1" stop-color="#2D1208" stop-opacity="0.94"/>
</linearGradient>
<linearGradient id="paint2_linear_26_3" x1="464.954" y1="84.67" x2="464.954" y2="141.67" gradientUnits="userSpaceOnUse">
<stop stop-color="#593223"/>
<stop offset="1" stop-color="#2D1208" stop-opacity="0.94"/>
</linearGradient>
<clipPath id="clip0_26_3">
<rect width="250" height="250" fill="white" transform="translate(0 39.1866) rotate(-9.01809)"/>
</clipPath>
</defs>
</svg>
