<svg width="250" height="200" viewBox="0 0 250 200" fill="none" xmlns="http://www.w3.org/2000/svg">
<path d="M79.8053 170.078C83.2999 165.108 84.1381 154.497 80.9052 148.936C77.4779 143.039 68.6552 143.418 69.3735 153.978C69.4036 154.475 69.3961 154.971 69.4109 155.584C62.1971 150.132 56.7867 153.511 57.7446 158.051C59.8923 168.195 76.4078 174.901 79.8053 170.078Z" fill="#FC675B"/>
<path d="M178.627 73.4548C178.469 73.7177 178.297 73.9585 178.088 74.2722C176.344 69.1638 172.453 69.0908 171.368 71.6888C168.951 77.4906 174.937 86.2773 178.312 84.9638C181.784 83.6135 185.863 78.5562 186.155 74.7028C186.469 70.6161 181.904 67.9158 178.627 73.4548Z" fill="#FC675B"/>
<path d="M190.414 133.675C190.174 134.083 189.897 134.47 189.576 134.959C186.829 126.939 180.73 126.822 179.024 130.894C175.223 140.002 184.629 153.81 189.927 151.744C195.375 149.628 201.788 141.673 202.252 135.623C202.731 129.208 195.562 124.968 190.414 133.675Z" fill="#FC675B"/>
<path d="M121.706 71.4736C120.545 60.167 122.192 49.2732 126.51 38.7255C128.524 33.8044 130.961 29.1181 134.271 24.8991C136.78 21.6951 139.532 18.7082 142.751 16.1497C143.699 15.3907 144.684 14.6865 145.886 14.3267C147.234 13.9223 148.437 14.1863 149.441 15.1094C149.943 15.571 150.372 16.1209 150.763 16.6746C153.086 19.9488 154.647 23.566 155.793 27.3663C156.948 31.1874 157.637 35.0862 157.899 39.0589C158.405 46.5876 157.556 53.9638 155.382 61.2062C153.534 67.3578 150.923 73.1482 147.084 78.3764C144.136 82.3892 140.798 86.0683 136.696 89.0195C135.865 89.6122 134.991 90.1507 134.133 90.7023C133.528 91.0881 132.855 91.2681 132.143 91.1587C131.24 91.0177 130.334 90.855 129.44 90.6617C128.831 90.5268 128.279 90.2319 127.901 89.7355C127.311 88.9528 126.684 88.1739 126.236 87.3103C124.397 83.7732 123.132 80.0443 122.449 76.1374C122.182 74.5874 121.952 73.0333 121.706 71.4736ZM145.946 35.6704C145.869 34.9665 145.829 34.2587 145.709 33.5665C145.549 32.6585 145.352 31.7468 144.85 30.9477C144.451 30.3213 144.112 30.2537 143.607 30.7979C143.143 31.3011 142.707 31.853 142.412 32.4562C141.548 34.1899 140.676 35.9245 139.962 37.7236C136.981 45.2259 135.07 53.006 133.769 60.9355C133.055 65.2812 132.745 69.6729 132.54 74.0683C132.408 76.9151 132.464 79.7716 132.444 82.6211C132.441 82.8638 132.468 83.1177 132.539 83.3454C132.638 83.6358 132.888 83.7199 133.12 83.505C133.319 83.3229 133.497 83.0989 133.623 82.8656C135.042 80.2227 136.547 77.6076 137.855 74.9103C142.037 66.2777 144.873 57.2491 145.841 47.7177C146.244 43.6979 146.302 39.6846 145.946 35.6704Z" fill="url(#paint0_linear_12_305)"/>
<path d="M111.881 72.8165C112.229 78.2213 111.746 83.4982 110.133 88.6537C109.804 89.6998 109.413 90.7051 108.8 91.6259C108.41 92.2145 107.909 92.6768 107.239 92.9209C106.459 93.2069 105.671 93.4784 104.883 93.7429C104.072 94.0083 103.309 93.8695 102.528 93.5562C98.3998 91.9133 94.8349 89.4174 91.4718 86.6197C85.591 81.736 81.1324 75.7833 77.7213 69.064C75.1505 63.9998 73.2208 58.7218 72.0795 53.1798C71.2963 49.3885 70.8408 45.5599 70.8177 41.6883C70.7912 36.4142 71.3906 31.2195 73.1985 26.2154C73.7305 24.7358 74.4377 23.3062 75.1458 21.8985C75.6428 20.9101 76.4786 20.2489 77.611 19.9754C78.3142 19.8028 79.0207 19.8492 79.67 20.0957C80.6552 20.4649 81.6413 20.856 82.5447 21.3825C87.2926 24.1576 91.4177 27.6569 95.1115 31.6663C98.409 35.2491 100.982 39.3122 103.366 43.5014C106.639 49.2702 109.022 55.3592 110.411 61.8101C111.194 65.4477 111.762 69.1323 111.881 72.8165ZM103.03 86.4227C103.069 86.1578 103.154 85.8982 103.134 85.6507C103.092 85.1337 102.999 84.6268 102.929 84.1188C102.132 78.1289 100.697 72.2647 99.0477 66.4546C97.0517 59.419 94.1141 52.7284 90.8246 46.186C89.4092 43.3823 87.797 40.6833 85.9302 38.1351C85.3829 37.3869 84.7698 36.6711 84.0861 36.039C83.3079 35.3163 82.8354 35.456 82.5722 36.4768C82.3657 37.2833 82.2514 38.1362 82.2262 38.9706C82.162 41.2605 82.4781 43.5179 82.8396 45.7803C83.4186 49.3839 84.2121 52.9333 85.3467 56.408C87.9271 64.3362 91.722 71.6872 96.5115 78.5521C98.2319 81.0197 100.127 83.3764 101.948 85.7732C102.173 86.0622 102.392 86.4023 103.03 86.4227Z" fill="url(#paint1_linear_12_305)"/>
<path d="M195.949 104.608C209.083 105.111 220.607 108.928 230.544 116.963C231.293 117.569 232.026 118.189 232.767 118.802C232.962 118.963 233.156 119.116 233.328 119.298C233.987 119.977 234.039 120.714 233.493 121.269C233.007 121.765 232.221 121.772 231.547 121.232C230.709 120.568 229.901 119.867 229.078 119.189C222.29 113.569 214.478 110.052 205.782 108.315C201.24 107.403 196.668 107.03 192.051 107.505C190.554 107.658 189.065 107.943 187.575 108.176C187.329 108.213 187.082 108.293 186.835 108.315C186.034 108.366 185.42 107.957 185.293 107.293C185.166 106.622 185.548 105.994 186.326 105.797C187.336 105.542 188.354 105.301 189.387 105.191C191.669 104.936 193.966 104.775 195.949 104.608Z" fill="#FAFAFA"/>
<path d="M228.307 102.674C228.277 103.418 227.656 103.958 226.84 103.87C226.421 103.827 226.002 103.681 225.591 103.549C221.931 102.367 218.257 101.28 214.456 100.623C209.868 99.8349 205.251 99.4918 200.589 99.7837C197.311 99.9881 194.064 100.302 190.883 101.127C190.015 101.353 189.17 101.645 188.309 101.907C188.069 101.98 187.838 102.097 187.598 102.148C186.925 102.294 186.341 102.024 186.064 101.462C185.795 100.908 185.937 100.251 186.513 99.8858C186.925 99.6232 187.411 99.4406 187.882 99.2801C190.823 98.273 193.869 97.7548 196.952 97.4411C200.971 97.0324 205.004 96.9668 209.03 97.2879C214.261 97.7039 219.335 98.8131 224.318 100.397C225.314 100.711 226.309 101.01 227.289 101.36C228.015 101.615 228.33 102.068 228.307 102.674Z" fill="#FAFAFA"/>
<path d="M188.084 111.504C192.17 111.738 195.792 112.314 199.265 113.54C206.703 116.182 213.355 120.05 218.871 125.669C219.095 125.896 219.335 126.114 219.507 126.377C219.873 126.925 219.791 127.611 219.365 128.027C218.938 128.435 218.22 128.516 217.673 128.129C217.239 127.822 216.873 127.421 216.491 127.056C210.834 121.524 204.114 117.715 196.473 115.452C193.255 114.496 189.94 114.059 186.565 114.183C186.281 114.19 185.989 114.219 185.705 114.183C184.964 114.095 184.47 113.606 184.433 112.964C184.395 112.329 184.837 111.745 185.578 111.657C186.543 111.533 187.523 111.533 188.084 111.504Z" fill="#FAFAFA"/>
<path d="M47.5595 128.25C50.6277 128.177 53.6658 128.454 56.6665 129.089C57.0184 129.162 57.3775 129.228 57.7068 129.359C58.3279 129.614 58.6423 130.213 58.5151 130.811C58.3954 131.358 57.9088 131.775 57.2804 131.804C56.9958 131.818 56.7042 131.775 56.4271 131.716C52.1019 130.782 47.7242 130.534 43.3389 131.008C32.9897 132.139 23.5906 135.613 15.4712 142.101C14.4984 142.882 13.548 143.692 12.5827 144.48C12.3657 144.663 12.1412 144.852 11.8942 144.984C11.348 145.268 10.6894 145.159 10.3078 144.758C9.89619 144.327 9.83634 143.743 10.1731 143.203C10.3003 142.999 10.4799 142.809 10.6595 142.648C15.6134 138.284 21.0538 134.664 27.2799 132.242C32.6903 130.133 38.3027 128.819 44.1096 128.308C44.3641 128.286 44.611 128.257 44.8655 128.257C45.7634 128.242 46.6616 128.25 47.5595 128.25Z" fill="#FAFAFA"/>
<path d="M57.8638 124.25C57.8864 125.148 57.2502 125.739 56.472 125.688C56.2251 125.673 55.9781 125.586 55.7462 125.498C52.1766 124.178 48.4424 123.674 44.6634 123.382C40.9892 123.097 37.3297 123.141 33.663 123.521C28.8064 124.024 24.0995 125.148 19.4822 126.651C18.8312 126.863 18.1876 127.075 17.5291 127.257C17.2223 127.337 16.893 127.396 16.5787 127.367C16.0773 127.316 15.7107 127.009 15.5535 126.542C15.3814 126.038 15.4787 125.542 15.9202 125.206C16.1971 124.995 16.5338 124.849 16.8706 124.732C22.1612 122.973 27.5268 121.528 33.1093 120.937C37.023 120.521 40.9442 120.492 44.8655 120.777C48.3902 121.025 51.8772 121.506 55.2596 122.565C55.8433 122.747 56.4123 122.959 56.9734 123.192C57.5197 123.411 57.8191 123.827 57.8638 124.25Z" fill="#FAFAFA"/>
<path d="M55.3121 135.051C56.0306 135.051 56.7488 135.037 57.4748 135.059C57.7966 135.066 58.1258 135.11 58.4327 135.197C58.9939 135.358 59.353 135.832 59.3756 136.35C59.3979 136.905 59.0238 137.452 58.4177 137.606C58.0809 137.693 57.7067 137.686 57.3476 137.679C52.3413 137.555 47.5595 138.54 42.9572 140.444C38.0482 142.473 33.5134 145.079 29.5099 148.531C28.5969 149.319 27.7439 150.187 26.8608 151.005C26.5988 151.245 26.3443 151.501 26.0452 151.683C25.5139 152.004 24.8478 151.917 24.4511 151.53C24.047 151.143 23.9424 150.494 24.2491 149.975C24.4062 149.706 24.6458 149.479 24.8702 149.253C28.9186 145.115 33.6331 141.897 38.8864 139.379C43.1143 137.35 47.5071 135.861 52.2065 135.307C53.2392 135.183 54.2869 135.102 55.3196 135.008C55.3046 135.022 55.3121 135.037 55.3121 135.051Z" fill="#FAFAFA"/>
<g filter="url(#filter0_d_12_305)">
<path d="M86.4525 127.015C83.5677 127.454 81.1736 127.276 79.2693 126.483C77.3617 125.668 76.2321 124.16 75.8805 121.961C75.6945 120.797 75.7587 119.878 76.0727 119.202C76.3867 118.526 76.945 118.127 77.7474 118.005C78.333 117.916 78.8337 117.991 79.2498 118.231C79.6658 118.471 79.9111 118.824 79.9854 119.289C80.0532 119.712 80.0797 120.087 80.0654 120.414C80.079 120.499 80.0809 120.65 80.0713 120.869C80.0835 121.083 80.1082 121.307 80.1454 121.54C80.2975 122.491 80.8986 123.126 81.9492 123.443C83.0212 123.756 84.4464 123.778 86.2248 123.508C88.0684 123.228 89.46 122.691 90.3996 121.898C91.3359 121.084 91.711 120.095 91.5249 118.932C91.4099 118.213 91.0734 117.636 90.5151 117.201C89.9534 116.744 89.2876 116.402 88.5179 116.172C87.7446 115.921 86.6668 115.641 85.2844 115.331C83.5129 114.951 82.0501 114.555 80.8961 114.146C79.7639 113.733 78.7404 113.098 77.8257 112.241C76.9295 111.358 76.3645 110.188 76.1312 108.728C75.8878 107.205 76.0835 105.789 76.7183 104.479C77.3747 103.166 78.4313 102.063 79.8881 101.17C81.3667 100.274 83.1686 99.664 85.294 99.3408C86.8773 99.1 88.3676 99.1117 89.7651 99.3759C91.159 99.619 92.3208 100.147 93.2502 100.958C94.2016 101.767 94.7853 102.848 95.0017 104.202C95.2147 105.534 95.1693 106.57 94.8655 107.31C94.5616 108.05 94.0085 108.48 93.206 108.602C92.6421 108.688 92.1378 108.591 91.6933 108.312C91.2705 108.03 91.0219 107.656 90.9476 107.191C90.8834 106.789 90.8568 106.414 90.8676 106.065C90.8314 105.421 90.7996 105.014 90.7726 104.845C90.6305 103.957 90.0776 103.347 89.1141 103.017C88.1505 102.687 87.0071 102.622 85.6842 102.824C83.8189 103.107 82.4417 103.663 81.5522 104.492C80.6811 105.296 80.3417 106.301 80.5346 107.506C80.663 108.31 81.0224 108.96 81.6124 109.455C82.2241 109.947 82.94 110.325 83.7601 110.591C84.58 110.856 85.7154 111.149 87.1663 111.47C88.9196 111.875 90.3373 112.266 91.4193 112.644C92.5017 113.021 93.4624 113.611 94.3018 114.415C95.163 115.216 95.6999 116.283 95.913 117.615C96.3121 120.111 95.6437 122.184 93.9083 123.834C92.191 125.461 89.7056 126.521 86.4525 127.015ZM122.461 111.401C122.522 111.37 122.629 111.343 122.781 111.32C123.106 111.271 123.373 111.339 123.58 111.524C123.787 111.709 123.92 111.981 123.977 112.341C124.082 112.996 124.035 113.534 123.835 113.955C123.632 114.354 123.284 114.677 122.791 114.926C121.844 115.395 120.807 115.715 119.679 115.886C118.725 116.032 117.804 116.041 116.918 115.916C116.448 117.006 115.918 118.137 115.328 119.311C114.653 120.648 114.036 121.587 113.478 122.126C112.942 122.663 112.284 122.991 111.503 123.109C110.635 123.241 109.921 123.014 109.361 122.427C108.822 121.838 108.379 120.8 108.031 119.315L107.498 117.024C107.109 118.902 106.718 120.349 106.325 121.362C105.953 122.372 105.525 123.097 105.04 123.539C104.577 123.978 103.988 124.252 103.272 124.361C102.383 124.496 101.624 124.265 100.995 123.667C100.388 123.066 99.9029 122.046 99.5395 120.606C98.8058 117.684 98.2615 115.113 97.9064 112.892L97.7288 111.782C97.639 111.08 97.7564 110.564 98.0811 110.233C98.4059 109.902 98.937 109.681 99.6745 109.569C100.238 109.483 100.671 109.547 100.972 109.761C101.291 109.951 101.496 110.332 101.587 110.903C101.976 113.335 102.633 116.474 103.559 120.32C104.551 117.071 105.402 113.713 106.114 110.247C106.251 109.576 106.466 109.11 106.757 108.849C107.067 108.564 107.461 108.385 107.938 108.312C108.523 108.223 108.943 108.278 109.197 108.478C109.473 108.675 109.658 109.069 109.753 109.661C110.142 112.094 110.799 115.233 111.725 119.078C112.725 116.998 113.461 115.348 113.933 114.128C113.509 113.564 113.23 112.859 113.095 112.013C112.98 111.294 113.031 110.571 113.248 109.845C113.465 109.118 113.822 108.501 114.318 107.992C114.814 107.483 115.42 107.175 116.136 107.066C116.765 106.97 117.31 107.115 117.772 107.5C118.23 107.863 118.524 108.458 118.656 109.282C118.809 110.234 118.722 111.363 118.398 112.669C119.215 112.501 120.285 112.176 121.608 111.694L122.461 111.401ZM135.891 111.992C136.173 111.949 136.41 112.043 136.603 112.274C136.817 112.501 136.959 112.837 137.03 113.281C137.165 114.127 137.064 114.814 136.726 115.342C136.076 116.416 135.078 117.467 133.731 118.495C132.407 119.519 130.909 120.159 129.239 120.413C126.962 120.759 125.098 120.425 123.648 119.41C122.197 118.396 121.304 116.842 120.969 114.748C120.736 113.289 120.834 111.887 121.264 110.543C121.69 109.179 122.397 108.042 123.385 107.134C124.394 106.222 125.603 105.659 127.013 105.444C128.271 105.253 129.339 105.47 130.216 106.095C131.091 106.699 131.627 107.625 131.827 108.872C132.06 110.332 131.719 111.673 130.804 112.895C129.907 114.093 128.227 115.193 125.766 116.196C126.464 117.086 127.572 117.416 129.09 117.186C130.066 117.037 131.12 116.541 132.251 115.697C133.401 114.829 134.345 113.787 135.084 112.569C135.297 112.234 135.566 112.041 135.891 111.992ZM126.957 108.638C126.155 108.76 125.544 109.318 125.126 110.314C124.729 111.306 124.634 112.447 124.84 113.737L124.85 113.8C126.083 113.31 127.02 112.712 127.663 112.008C128.306 111.303 128.564 110.56 128.439 109.778C128.375 109.375 128.205 109.076 127.929 108.88C127.672 108.659 127.348 108.578 126.957 108.638ZM148.663 110.05C148.944 110.007 149.182 110.101 149.374 110.332C149.588 110.559 149.731 110.895 149.802 111.339C149.937 112.185 149.836 112.872 149.498 113.4C148.848 114.474 147.849 115.525 146.503 116.553C145.179 117.577 143.681 118.217 142.011 118.471C139.734 118.817 137.87 118.483 136.419 117.469C134.968 116.454 134.076 114.9 133.741 112.806C133.508 111.347 133.606 109.945 134.035 108.602C134.461 107.237 135.168 106.1 136.156 105.192C137.166 104.28 138.375 103.717 139.785 103.503C141.043 103.311 142.111 103.528 142.988 104.153C143.862 104.757 144.399 105.683 144.598 106.931C144.832 108.39 144.491 109.731 143.575 110.953C142.678 112.151 140.999 113.252 138.538 114.254C139.236 115.145 140.344 115.475 141.862 115.244C142.838 115.095 143.892 114.599 145.023 113.756C146.173 112.888 147.117 111.845 147.855 110.628C148.068 110.292 148.337 110.099 148.663 110.05ZM139.729 106.696C138.926 106.818 138.316 107.377 137.897 108.372C137.501 109.364 137.405 110.505 137.612 111.795L137.622 111.858C138.854 111.368 139.792 110.77 140.434 110.066C141.077 109.362 141.336 108.618 141.211 107.836C141.147 107.434 140.976 107.135 140.701 106.938C140.443 106.717 140.119 106.637 139.729 106.696ZM151.542 104.802C151.668 105.867 151.778 106.695 151.873 107.287C152.116 108.81 152.383 109.994 152.673 110.838C152.982 111.657 153.351 112.229 153.781 112.554C154.229 112.854 154.789 112.953 155.461 112.851C155.808 112.798 156.203 112.63 156.647 112.346C157.09 112.062 157.48 111.721 157.816 111.323C158.021 111.075 158.242 110.933 158.481 110.897C158.741 110.857 158.971 110.974 159.17 111.247C159.388 111.496 159.528 111.821 159.593 112.223C159.657 112.625 159.633 113.029 159.52 113.436C159.429 113.84 159.241 114.194 158.956 114.497C157.974 115.578 156.767 116.227 155.336 116.445C153.275 116.758 151.635 116.152 150.413 114.626C149.188 113.079 148.36 110.952 147.927 108.244C147.778 107.314 147.66 106.368 147.573 105.406L146.304 105.599C145.654 105.698 145.19 105.649 144.915 105.453C144.66 105.253 144.493 104.899 144.412 104.392C144.222 103.207 144.616 102.541 145.592 102.392L147.446 102.111C147.443 99.7277 147.667 97.5163 148.118 95.4761C148.57 93.436 149.235 91.764 150.115 90.4603C151.017 89.1532 152.086 88.4057 153.323 88.2176C154.234 88.0793 155.012 88.3617 155.658 89.0651C156.303 89.7686 156.721 90.7126 156.91 91.897C157.434 95.1754 156.481 98.2452 154.05 101.106L157.694 100.552C158.041 100.5 158.302 100.536 158.477 100.661C158.653 100.786 158.773 101.049 158.837 101.451C159.071 102.91 157.962 103.826 155.511 104.199L151.542 104.802ZM152.931 91.397C152.606 91.4465 152.302 91.9046 152.018 92.7708C151.753 93.6128 151.549 94.7704 151.407 96.2436C151.283 97.6924 151.238 99.2915 151.274 101.041C152.381 99.7676 153.143 98.4169 153.559 96.9887C153.993 95.5362 154.122 94.2601 153.946 93.1601C153.747 91.9121 153.408 91.3245 152.931 91.397Z" fill="#F8D696"/>
</g>
<g filter="url(#filter1_d_12_305)">
<path d="M109.265 153.369C106.381 153.808 103.986 153.631 102.082 152.837C100.175 152.022 99.0449 150.514 98.6933 148.315C98.5073 147.151 98.5715 146.232 98.8855 145.556C99.1995 144.88 99.7578 144.481 100.56 144.359C101.146 144.27 101.647 144.345 102.063 144.585C102.479 144.825 102.724 145.178 102.798 145.643C102.866 146.066 102.893 146.442 102.878 146.769C102.892 146.853 102.894 147.005 102.884 147.223C102.896 147.437 102.921 147.661 102.958 147.894C103.11 148.846 103.711 149.48 104.762 149.797C105.834 150.111 107.259 150.132 109.038 149.862C110.881 149.582 112.273 149.045 113.212 148.252C114.149 147.438 114.524 146.45 114.338 145.286C114.223 144.567 113.886 143.99 113.328 143.555C112.766 143.099 112.1 142.756 111.331 142.526C110.557 142.275 109.48 141.995 108.097 141.685C106.326 141.305 104.863 140.91 103.709 140.5C102.577 140.087 101.553 139.452 100.639 138.595C99.7423 137.713 99.1774 136.542 98.944 135.083C98.7006 133.56 98.8963 132.143 99.5311 130.833C100.187 129.52 101.244 128.417 102.701 127.524C104.179 126.628 105.981 126.018 108.107 125.695C109.69 125.454 111.18 125.466 112.578 125.73C113.972 125.973 115.134 126.501 116.063 127.313C117.014 128.121 117.598 129.202 117.814 130.556C118.028 131.889 117.982 132.925 117.678 133.664C117.374 134.404 116.821 134.834 116.019 134.956C115.455 135.042 114.951 134.945 114.506 134.666C114.083 134.384 113.835 134.01 113.76 133.545C113.696 133.143 113.67 132.768 113.68 132.419C113.644 131.775 113.612 131.368 113.585 131.199C113.443 130.311 112.89 129.701 111.927 129.371C110.963 129.041 109.82 128.977 108.497 129.178C106.632 129.461 105.254 130.017 104.365 130.846C103.494 131.65 103.155 132.655 103.347 133.861C103.476 134.664 103.835 135.314 104.425 135.809C105.037 136.301 105.753 136.68 106.573 136.945C107.393 137.21 108.528 137.503 109.979 137.825C111.732 138.23 113.15 138.621 114.232 138.998C115.314 139.375 116.275 139.965 117.115 140.769C117.976 141.57 118.513 142.637 118.726 143.969C119.125 146.465 118.457 148.538 116.721 150.189C115.004 151.815 112.518 152.875 109.265 153.369ZM124.11 133.564C123.199 133.702 122.483 133.605 121.964 133.272C121.441 132.919 121.12 132.372 121.001 131.631C120.883 130.891 121.078 130.233 121.586 129.658C122.112 129.058 122.819 128.69 123.709 128.555C124.511 128.433 125.192 128.524 125.752 128.829C126.312 129.134 126.647 129.636 126.759 130.333C126.894 131.18 126.72 131.899 126.238 132.493C125.751 133.065 125.042 133.422 124.11 133.564ZM126.573 150.641C125.163 150.855 124.055 150.525 123.249 149.651C122.465 148.774 121.944 147.531 121.687 145.924C121.535 144.972 121.46 143.738 121.461 142.221C121.481 140.68 121.584 139.234 121.768 137.884C121.855 137.178 122.041 136.673 122.326 136.37C122.61 136.067 123.111 135.861 123.826 135.752C124.932 135.583 125.543 135.859 125.658 136.578C125.742 137.107 125.732 138.365 125.628 140.353C125.479 142.758 125.471 144.374 125.603 145.198C125.704 145.833 125.869 146.306 126.096 146.618C126.324 146.93 126.644 147.055 127.056 146.992C127.446 146.933 127.892 146.594 128.393 145.977C128.894 145.359 129.541 144.405 130.335 143.114C130.548 142.778 130.817 142.586 131.142 142.536C131.424 142.494 131.661 142.587 131.854 142.818C132.068 143.046 132.211 143.381 132.281 143.825C132.417 144.672 132.315 145.359 131.978 145.887C130.24 148.772 128.438 150.357 126.573 150.641ZM132.887 149.681C132.063 149.806 131.41 149.472 130.928 148.679C130.467 147.882 130.088 146.553 129.79 144.692C129.351 141.942 129.334 139.269 129.741 136.672C129.838 136.029 130.082 135.537 130.472 135.196C130.88 134.831 131.485 134.587 132.288 134.465C132.722 134.399 133.034 134.406 133.224 134.485C133.414 134.565 133.533 134.753 133.581 135.049C133.635 135.387 133.594 136.173 133.458 137.407C133.376 138.286 133.321 139.053 133.292 139.707C133.264 140.361 133.28 141.161 133.342 142.104C133.767 140.177 134.333 138.574 135.04 137.297C135.746 136.019 136.484 135.073 137.252 134.458C138.041 133.839 138.794 133.476 139.51 133.367C140.92 133.153 141.735 133.733 141.954 135.108C142.086 135.933 142.086 137.46 141.954 139.69C141.836 141.593 141.824 142.841 141.919 143.433C142.054 144.279 142.436 144.654 143.065 144.558C143.499 144.492 143.968 144.161 144.473 143.564C144.995 142.943 145.663 141.975 146.474 140.66C146.687 140.325 146.956 140.132 147.282 140.083C147.564 140.04 147.801 140.134 147.993 140.364C148.207 140.592 148.35 140.928 148.421 141.372C148.556 142.218 148.455 142.905 148.117 143.433C147.364 144.696 146.502 145.769 145.533 146.653C144.585 147.534 143.428 148.078 142.061 148.286C140.955 148.454 140.071 148.274 139.409 147.747C138.744 147.198 138.317 146.331 138.127 145.147C138.033 144.554 138.016 143.474 138.076 141.905C138.145 140.529 138.139 139.588 138.057 139.08C138.003 138.742 137.857 138.591 137.618 138.627C137.336 138.67 136.993 139.09 136.587 139.889C136.2 140.662 135.828 141.672 135.472 142.918C135.137 144.161 134.91 145.452 134.791 146.791C134.712 147.822 134.538 148.541 134.27 148.95C134.02 149.335 133.56 149.578 132.887 149.681ZM152.879 147.356C151.752 147.527 150.843 147.406 150.155 146.99C149.488 146.572 149.104 146.045 149.003 145.411C148.915 144.861 149.045 144.353 149.393 143.889C149.741 143.424 150.316 143.131 151.118 143.009C151.4 142.966 151.73 142.948 152.109 142.956C152.506 142.939 152.804 142.926 153.003 142.917C152.893 142.371 152.68 141.872 152.364 141.422C152.069 140.969 151.713 140.546 151.295 140.155C150.874 139.742 150.484 139.39 150.126 139.097C149.653 140.448 149.147 141.586 148.606 142.514C148.088 143.437 147.497 144.329 146.834 145.188C146.505 145.628 146.123 145.881 145.69 145.947C145.342 146 145.042 145.926 144.788 145.726C144.53 145.506 144.373 145.215 144.315 144.856C144.248 144.433 144.337 144.018 144.583 143.613L144.925 143.041C145.888 141.421 146.599 140.1 147.057 139.077C147.35 138.404 147.623 137.615 147.878 136.709C148.155 135.801 148.502 134.567 148.92 133.009C149.183 132.016 149.965 131.42 151.267 131.222C151.874 131.13 152.305 131.118 152.561 131.188C152.816 131.257 152.963 131.408 153 131.641C153.02 131.768 153.009 131.975 152.966 132.264C152.923 132.552 152.848 132.845 152.74 133.143C152.471 133.964 152.379 134.639 152.464 135.167C152.515 135.485 152.679 135.817 152.957 136.165C153.256 136.509 153.69 136.931 154.258 137.429C155.094 138.212 155.737 138.894 156.185 139.476C156.652 140.034 156.944 140.682 157.063 141.423C157.205 142.311 157.123 143.19 156.818 144.06C156.531 144.905 156.047 145.629 155.365 146.231C154.684 146.832 153.855 147.208 152.879 147.356Z" fill="#F8D696"/>
</g>
<defs>
<filter id="filter0_d_12_305" x="74.7768" y="87.1835" width="87.851" height="43.0659" filterUnits="userSpaceOnUse" color-interpolation-filters="sRGB">
<feFlood flood-opacity="0" result="BackgroundImageFix"/>
<feColorMatrix in="SourceAlpha" type="matrix" values="0 0 0 0 0 0 0 0 0 0 0 0 0 0 0 0 0 0 127 0" result="hardAlpha"/>
<feOffset dx="1" dy="1"/>
<feGaussianBlur stdDeviation="1"/>
<feComposite in2="hardAlpha" operator="out"/>
<feColorMatrix type="matrix" values="0 0 0 0 0 0 0 0 0 0 0 0 0 0 0 0 0 0 0.25 0"/>
<feBlend mode="normal" in2="BackgroundImageFix" result="effect1_dropShadow_12_305"/>
<feBlend mode="normal" in="SourceGraphic" in2="effect1_dropShadow_12_305" result="shape"/>
</filter>
<filter id="filter1_d_12_305" x="97.5896" y="124.523" width="62.5407" height="32.0809" filterUnits="userSpaceOnUse" color-interpolation-filters="sRGB">
<feFlood flood-opacity="0" result="BackgroundImageFix"/>
<feColorMatrix in="SourceAlpha" type="matrix" values="0 0 0 0 0 0 0 0 0 0 0 0 0 0 0 0 0 0 127 0" result="hardAlpha"/>
<feOffset dx="1" dy="1"/>
<feGaussianBlur stdDeviation="1"/>
<feComposite in2="hardAlpha" operator="out"/>
<feColorMatrix type="matrix" values="0 0 0 0 0 0 0 0 0 0 0 0 0 0 0 0 0 0 0.25 0"/>
<feBlend mode="normal" in2="BackgroundImageFix" result="effect1_dropShadow_12_305"/>
<feBlend mode="normal" in="SourceGraphic" in2="effect1_dropShadow_12_305" result="shape"/>
</filter>
<linearGradient id="paint0_linear_12_305" x1="135.463" y1="15.3299" x2="143.235" y2="90.0943" gradientUnits="userSpaceOnUse">
<stop stop-color="#FF847B"/>
<stop offset="1" stop-color="#DE5953"/>
</linearGradient>
<linearGradient id="paint1_linear_12_305" x1="89.4135" y1="19.3421" x2="93.0175" y2="94.4139" gradientUnits="userSpaceOnUse">
<stop stop-color="#FF847B"/>
<stop offset="1" stop-color="#DE5953"/>
</linearGradient>
</defs>
</svg>
