<svg width="80" height="80" viewBox="0 0 80 80" fill="none" xmlns="http://www.w3.org/2000/svg">
<path d="M29.5 58.1667C29.0556 57.6111 28.8194 57 28.7917 56.3333C28.7639 55.6667 29 55.0833 29.5 54.5833L44.1667 39.9167L29.4167 25.1667C28.9722 24.7222 28.7639 24.125 28.7917 23.375C28.8194 22.625 29.0556 22.0278 29.5 21.5833C30.0556 21.0278 30.6528 20.7639 31.2917 20.7917C31.9306 20.8194 32.5 21.0833 33 21.5833L49.5833 38.1667C49.8611 38.4444 50.0556 38.7222 50.1667 39C50.2778 39.2778 50.3333 39.5833 50.3333 39.9167C50.3333 40.25 50.2778 40.5555 50.1667 40.8333C50.0556 41.1111 49.8611 41.3889 49.5833 41.6667L33.0833 58.1667C32.5833 58.6667 32 58.9028 31.3333 58.875C30.6667 58.8472 30.0556 58.6111 29.5 58.1667Z" fill="url(#paint0_linear_19_84)"/>
<defs>
<linearGradient id="paint0_linear_19_84" x1="39.7258" y1="20.7897" x2="39.7258" y2="57.994" gradientUnits="userSpaceOnUse">
<stop stop-color="#593223"/>
<stop offset="1" stop-color="#311208" stop-opacity="0.94"/>
</linearGradient>
</defs>
</svg>
