<svg width="80" height="80" viewBox="0 0 80 80" fill="none" xmlns="http://www.w3.org/2000/svg">
<path d="M50.5 21.8333C50.9445 22.3889 51.1806 23 51.2084 23.6667C51.2361 24.3333 51 24.9167 50.5 25.4167L35.8334 40.0833L50.5834 54.8333C51.0278 55.2778 51.2361 55.875 51.2084 56.625C51.1806 57.375 50.9445 57.9722 50.5 58.4167C49.9445 58.9722 49.3473 59.2361 48.7084 59.2083C48.0695 59.1806 47.5 58.9167 47 58.4167L30.4167 41.8333C30.1389 41.5556 29.9445 41.2778 29.8334 41C29.7223 40.7222 29.6667 40.4167 29.6667 40.0833C29.6667 39.75 29.7223 39.4445 29.8334 39.1667C29.9445 38.8889 30.1389 38.6111 30.4167 38.3333L46.9167 21.8333C47.4167 21.3333 48 21.0972 48.6667 21.125C49.3334 21.1528 49.9445 21.3889 50.5 21.8333Z" fill="url(#paint0_linear_19_86)"/>
<defs>
<linearGradient id="paint0_linear_19_86" x1="40.2742" y1="59.2103" x2="40.2742" y2="22.006" gradientUnits="userSpaceOnUse">
<stop stop-color="#593223"/>
<stop offset="1" stop-color="#311208" stop-opacity="0.94"/>
</linearGradient>
</defs>
</svg>
