<svg width="30" height="31" viewBox="0 0 30 31" fill="none" xmlns="http://www.w3.org/2000/svg">
<path d="M22.9875 16.5604L12.7088 25.5962C11.4975 26.6626 9.60001 25.7959 9.60001 24.1775L9.60032 14.0852C9.60001 13.723 9.7033 5.38906 9.8984 5.08451C10.0935 4.77995 10.3718 4.53836 10.7001 4.38866C11.0283 4.23897 11.3925 4.18751 11.7491 4.24045C12.1057 4.2934 12.4395 4.4485 12.7106 4.68719L22.9856 13.723C23.187 13.8999 23.3484 14.1179 23.459 14.3626C23.5696 14.6073 23.6268 14.873 23.6268 15.1417C23.6268 15.4104 23.5696 15.6761 23.459 15.9208C23.3484 16.1655 23.187 16.3835 22.9856 16.5604H22.9875Z" fill="#FC675B"/>
</svg>
