<svg width="10" height="11" viewBox="0 0 10 11" fill="none" xmlns="http://www.w3.org/2000/svg">
<path d="M7.6625 5.52013L4.23625 8.53207C3.8325 8.88753 3.2 8.59864 3.2 8.05918L3.2001 4.69507C3.2 4.57434 3.23443 1.79635 3.29946 1.69484C3.36449 1.59332 3.45727 1.51279 3.56668 1.46289C3.67609 1.41299 3.7975 1.39584 3.91636 1.41348C4.03522 1.43113 4.1465 1.48283 4.23687 1.5624L7.66187 4.57434C7.729 4.63329 7.78281 4.70598 7.81967 4.78755C7.85654 4.86911 7.87561 4.95765 7.87561 5.04723C7.87561 5.13682 7.85654 5.22536 7.81967 5.30692C7.78281 5.38849 7.729 5.46118 7.66187 5.52013H7.6625Z" fill="#FC675B"/>
</svg>
